<svg width="22" height="22" viewBox="0 0 24 24" fill="none"
     xmlns="http://www.w3.org/2000/svg">
  <path d="M6.62 10.79C8.06 13.62 10.38 15.94 13.21 17.38L15.41 15.18C15.65 14.94 15.99 14.85 
           16.31 14.94C17.39 15.23 18.54 15.39 19.75 15.39C20.3 15.39 20.75 15.84 20.75 
           16.39V20.75C20.75 21.3 20.3 21.75 19.75 21.75C10.78 21.75 3.25 14.22 3.25 
           5.25C3.25 4.7 3.7 4.25 4.25 4.25H8.61C9.16 4.25 9.61 4.7 9.61 5.25C9.61 
           6.46 9.77 7.61 10.06 8.69C10.15 9.01 10.06 9.35 9.82 9.59L7.62 11.79C7.38 
           12.03 7 12.11 6.62 10.79Z"
        fill="white"/>
</svg>
